<svg width="19" height="18" viewBox="0 0 19 18" fill="none" xmlns="http://www.w3.org/2000/svg">
    <path d="M4.11201 8.96379C4.1349 9.33641 4.47539 9.62107 4.87252 9.5996C5.26966 9.57813 5.57305 9.25866 5.55017 8.88604C5.52729 8.51342 5.18679 8.22875 4.78966 8.25022C4.39252 8.27169 4.08913 8.59117 4.11201 8.96379Z" fill="white"/>
    <path d="M8.42648 8.73054C8.37287 7.85731 7.96047 7.0376 7.276 6.44379C7.13554 6.32212 6.94933 6.25778 6.75831 6.26494C6.5673 6.27209 6.38714 6.35014 6.25747 6.48193C6.12779 6.61372 6.05923 6.78844 6.06685 6.96766C6.07447 7.14688 6.15766 7.31592 6.29812 7.43759C6.69557 7.80053 6.93372 8.28999 6.96563 8.80951C6.99753 9.32903 6.82087 9.84092 6.47048 10.2443C6.34584 10.3803 6.2839 10.5572 6.29826 10.736C6.31263 10.9149 6.40213 11.0811 6.54708 11.198C6.69203 11.3149 6.88055 11.3731 7.07117 11.3596C7.2618 11.3461 7.43891 11.2621 7.56354 11.1261C8.1708 10.4625 8.48012 9.60377 8.42648 8.73054V8.73054ZM12.0219 8.53616C11.9712 7.72131 11.7463 6.92435 11.3606 6.19277C10.9748 5.46118 10.436 4.80994 9.77633 4.27783C9.70314 4.22 9.61853 4.17627 9.52733 4.14912C9.43613 4.12198 9.34012 4.11195 9.24479 4.11962C9.14946 4.12729 9.05667 4.1525 8.97173 4.19381C8.88678 4.23513 8.81134 4.29174 8.74971 4.36041C8.62524 4.49909 8.56459 4.67849 8.58109 4.85914C8.58927 4.94858 8.61614 5.03564 8.66017 5.11534C8.7042 5.19505 8.76453 5.26583 8.83772 5.32366C9.35193 5.73788 9.77186 6.24513 10.0724 6.81508C10.373 7.38502 10.5479 8.00597 10.5869 8.64082C10.6259 9.27566 10.5281 9.91136 10.2993 10.5099C10.0705 11.1085 9.71546 11.6576 9.25536 12.1245C9.19125 12.1907 9.14177 12.2681 9.10979 12.3524C9.07781 12.4366 9.06397 12.5259 9.06905 12.6152C9.07768 12.747 9.12729 12.8736 9.21174 12.9793C9.29619 13.0849 9.41179 13.165 9.54424 13.2097C9.6767 13.2544 9.8202 13.2617 9.95703 13.2307C10.0939 13.1997 10.218 13.1318 10.3141 13.0353C10.9076 12.4323 11.3648 11.7228 11.6583 10.9496C11.9518 10.1764 12.0755 9.35541 12.0219 8.53616Z" fill="white"/>
    <path d="M13.194 15.0525C14.8961 13.194 15.7633 10.7884 15.6131 8.34201C15.4629 5.89564 14.3069 3.59937 12.3886 1.93658C12.2466 1.83001 12.067 1.77774 11.8857 1.79025C11.7044 1.80276 11.5349 1.87912 11.4111 2.00402C11.2873 2.12892 11.2184 2.29311 11.2183 2.46367C11.2181 2.63423 11.2867 2.79854 11.4103 2.92363C13.0582 4.34924 14.0515 6.31979 14.1804 8.41946C14.3094 10.5191 13.5639 12.5837 12.1014 14.1775C11.9805 14.3095 11.9187 14.4801 11.9286 14.6539C11.9346 14.7447 11.96 14.8335 12.0034 14.9149C12.0469 14.9963 12.1074 15.0687 12.1813 15.1276C12.3265 15.2432 12.5144 15.3001 12.7042 15.2861C12.8939 15.272 13.07 15.1881 13.194 15.0525V15.0525Z" fill="white"/>
</svg>
